# xmcd
#
# Track frame offsets: 
#        150
#        11493
#        27098
#        42619
#        57071
#        71067
#        88046
#        100885
#        118743
#        130798
#        155124
#        174634
#
# Disc length: 2564 seconds
#
# Revision: 0
# Processed by: cddbd v1.5.2PL0 Copyright (c) Steve Scherf et al.
# Submitted via: ExactAudioCopy v0.95a5
#
DISCID=a10a020c
DTITLE=Ricky Nye - Ville du Bois
DYEAR=2008
DGENRE=Blues
TTITLE0=Walk That Walk
TTITLE1=Ville Du Bois
TTITLE2=Cherry Red
TTITLE3=Going To Cincinnati
TTITLE4=Lord Lord Lord
TTITLE5=If The Rabbit Had A Gun
TTITLE6=Little Village
TTITLE7=Nancy Pants/No No
TTITLE8=Dirty Rag
TTITLE9=Chicken A La Blues
TTITLE10=CC Rider
TTITLE11=Creole Boogie
EXTD=
EXTT0=
EXTT1=
EXTT2=
EXTT3=
EXTT4=
EXTT5=
EXTT6=
EXTT7=
EXTT8=
EXTT9=
EXTT10=
EXTT11=
PLAYORDER=
